<?xml version="1.0" encoding="utf-8"?>
<!-- Generator: Adobe Illustrator 16.0.0, SVG Export Plug-In . SVG Version: 6.00 Build 0)  -->
<!DOCTYPE svg PUBLIC "-//W3C//DTD SVG 1.1//EN" "http://www.w3.org/Graphics/SVG/1.1/DTD/svg11.dtd">
<svg version="1.1" id="Ebene_1" xmlns="http://www.w3.org/2000/svg" xmlns:xlink="http://www.w3.org/1999/xlink" x="0px" y="0px"
	 width="270px" height="80px" viewBox="0 0 270 80" enable-background="new 0 0 270 80" xml:space="preserve">
<rect fill="#3D123F" width="270" height="80"/>
<g>
	<g>
		<polygon fill="#772077" points="49.476,32.183 49.835,31.812 58.603,17.694 35.244,35.7 38.886,39.223 		"/>
		<polygon fill="#93278F" points="61.13,20.139 58.603,17.694 49.835,31.812 		"/>
		<polygon fill="#93278F" points="38.886,39.223 40.837,41.111 49.476,32.183 		"/>
		<polygon fill="#93278F" points="66.203,14.895 58.603,17.694 61.13,20.139 		"/>
		<polygon fill="#93278F" points="38.886,39.223 34.301,42.271 33.356,48.843 40.837,41.111 		"/>
		<polygon fill="#772077" points="35.244,35.7 34.301,42.271 38.886,39.223 		"/>
		<polygon fill="#93278F" points="49.695,32.038 49.835,31.812 49.476,32.183 		"/>
		<polygon fill="#93278F" points="40.837,41.111 42.851,43.059 49.695,32.038 49.476,32.183 		"/>
		<polygon fill="#93278F" points="49.835,31.812 49.695,32.038 63.763,22.685 61.13,20.139 		"/>
		<polygon fill="#AA2EAA" points="42.851,43.059 46.537,46.625 63.763,22.685 49.695,32.038 		"/>
		<polygon fill="#93278F" points="61.13,20.139 63.763,22.685 66.203,14.895 		"/>
		<polygon fill="#AA2EAA" points="39.947,47.734 46.537,46.625 42.851,43.059 		"/>
		<polygon fill="#93278F" points="40.837,41.111 33.356,48.843 39.947,47.734 42.851,43.059 		"/>
	</g>
	<g>
		<polygon fill="#93278F" points="27.809,54.594 28.085,54.309 27.745,54.532 27.809,54.594 		"/>
		<polygon fill="#772077" points="28.085,54.309 28.75,53.62 31.804,48.756 21.942,48.92 27.745,54.532 		"/>
		<polygon fill="#93278F" points="33.483,48.728 31.804,48.756 28.75,53.62 		"/>
		<polygon points="21.826,48.922 21.861,48.955 21.869,48.922 		"/>
		<polygon fill="#AA2EAA" points="28.015,54.793 33.675,60.268 33.516,50.734 28.483,54.047 		"/>
		<polygon fill="#772077" points="28.75,53.62 28.085,54.309 28.483,54.047 		"/>
		<polygon fill="#93278F" points="28.085,54.309 27.809,54.594 28.015,54.793 28.483,54.047 		"/>
		<polygon points="33.677,60.385 33.676,60.341 33.642,60.351 		"/>
		<polygon fill="#93278F" points="28.483,54.047 33.516,50.734 33.483,48.728 28.75,53.62 		"/>
		<polygon fill="#93278F" points="27.674,54.579 19.147,60.189 18.065,64.667 27.751,54.653 		"/>
		<polygon points="21.883,48.862 21.869,48.922 21.942,48.92 		"/>
		<polygon fill="#772077" points="21.861,48.955 19.147,60.189 27.674,54.579 		"/>
		<polygon fill="#93278F" points="27.745,54.532 27.674,54.579 27.751,54.653 27.809,54.594 		"/>
		<polygon fill="#772077" points="27.745,54.572 21.942,49 21.869,49 21.861,48.993 27.674,54.619 		"/>
		<polygon fill="#AA2EAA" points="22.607,63.409 33.642,60.351 27.97,54.864 		"/>
		<polygon points="33.675,60.268 33.676,60.341 33.734,60.325 		"/>
		<polygon fill="#93278F" points="27.751,54.653 27.751,54.653 18.065,64.667 22.607,63.409 27.97,54.864 		"/>
		<rect x="27.739" y="54.624" transform="matrix(0.6922 -0.7217 0.7217 0.6922 -30.8724 36.8652)" width="0.083" height="0"/>
		<polygon fill="#93278F" points="27.751,54.653 27.97,54.864 28.015,54.793 27.809,54.594 		"/>
		<polygon fill="#AA2EAA" points="28.177,54.793 28.052,54.864 33.845,60.351 34,60.341 34,60.268 		"/>
	</g>
</g>
<g>
	<g id="XMLID_1_">
		<g>
			<path fill="#93278F" d="M237.288,48.805h2.94v5.996c0.21,0.283,0.802,0.554,1.441,0.813c0.241,0.099,0.486,0.178,0.74,0.236
				c0.084,0.021,0.168,0.04,0.254,0.057c0,0,0.002,0,0.004,0c0.086,0.017,0.174,0.031,0.265,0.042
				c0.086,0.013,0.172,0.023,0.258,0.029c0.181,0.017,0.365,0.025,0.554,0.025c0.201,0,0.395-0.009,0.579-0.027
				c0.56-0.05,1.053-0.187,1.482-0.407c0.566-0.287,1.032-0.688,1.393-1.197c0.356-0.512,0.614-1.111,0.778-1.802
				c0.157-0.689,0.241-1.435,0.241-2.233c0-0.407-0.027-0.786-0.075-1.149c-0.018-0.13-0.036-0.256-0.06-0.382h2.935
				c0.069,0.489,0.103,0.996,0.103,1.531c0,1.179-0.155,2.271-0.459,3.268c-0.313,1.003-0.764,1.86-1.363,2.584
				c-0.6,0.718-1.334,1.277-2.2,1.676c-0.874,0.398-1.86,0.6-2.98,0.6c-0.901,0-1.68-0.117-2.374-0.36
				c-0.684-0.239-1.305-0.472-1.515-0.69v6.284h-2.94V48.805z"/>
			<path fill="#93278F" d="M244.323,55.976c0.558-0.053,1.049-0.188,1.475-0.407c0.568-0.287,1.033-0.688,1.398-1.197
				c0.356-0.512,0.616-1.111,0.774-1.802c0.163-0.689,0.243-1.435,0.243-2.233c0-0.407-0.025-0.786-0.071-1.149
				c0.048,0.363,0.075,0.742,0.075,1.149c0,0.799-0.084,1.544-0.241,2.233c-0.164,0.69-0.422,1.29-0.778,1.802
				c-0.36,0.51-0.826,0.91-1.393,1.197C245.376,55.789,244.883,55.926,244.323,55.976z"/>
			<path fill="#93278F" d="M243.19,55.978c-0.086-0.006-0.172-0.017-0.258-0.029C243.017,55.959,243.104,55.97,243.19,55.978z"/>
			<path fill="#772077" d="M237.288,42.987c0.844-0.16,1.538-0.334,2.521-0.524c0.994-0.191,2.182-0.285,3.485-0.285
				c1.198,0,2.278,0.19,3.234,0.57c0.965,0.38,1.787,0.919,2.465,1.621c0.679,0.698,1.203,1.552,1.574,2.563
				c0.212,0.581,0.363,1.208,0.449,1.873h-2.935c-0.035-0.205-0.077-0.402-0.128-0.594c-0.033-0.125-0.071-0.249-0.11-0.371
				c-0.021-0.061-0.042-0.119-0.063-0.178c-0.218-0.59-0.52-1.097-0.91-1.525c-0.734-0.799-1.663-1.271-2.794-1.417
				c-0.086-0.013-0.174-0.023-0.262-0.029c-0.179-0.015-0.363-0.023-0.55-0.023c-0.474,0-0.881,0.009-1.227,0.029
				c-0.038,0.002-0.073,0.004-0.109,0.006c-0.04,0.003-0.077,0.005-0.115,0.009c-0.035,0.002-0.069,0.004-0.103,0.009
				c-0.078,0.004-0.149,0.013-0.218,0.019c-0.027,0.004-0.053,0.006-0.078,0.011c-0.031,0.002-0.061,0.006-0.09,0.01
				c-0.468,0.06-0.888,0.128-1.098,0.208v3.838h-2.94V42.987z"/>
			<path fill="#93278F" d="M232.756,48.805c0.007,0.179-0.077,0.359-0.077,0.541v8.688h-2.727v-8.087c0-0.407,0.015-0.787,0-1.142
				H232.756z"/>
			<path fill="#93278F" d="M220.722,49.946c0-0.407,0.036-0.787,0.017-1.142h2.813c0.007,0.179,0.109,0.359,0.109,0.541v8.688
				h-2.938V49.946z"/>
			<path fill="#772077" d="M215.648,44.742c-0.181,0.02-0.346,0.04-0.501,0.062c0.148-0.023,0.304-0.042,0.479-0.062
				c0.214-0.022,0.44-0.042,0.676-0.059C216.078,44.702,215.862,44.72,215.648,44.742z"/>
			<path fill="#772077" d="M220.738,48.805c-0.013-0.225-0.027-0.44-0.046-0.644c-0.019-0.206-0.042-0.4-0.069-0.583
				c-0.088-0.581-0.234-1.069-0.437-1.48c-0.029-0.057-0.059-0.115-0.09-0.17c-0.249-0.438-0.585-0.766-1.02-0.976
				c-0.052-0.027-0.108-0.051-0.165-0.073c-0.057-0.023-0.115-0.044-0.177-0.065c-0.364-0.117-0.795-0.176-1.292-0.176
				c-0.276,0-0.572,0.008-0.896,0.029c-0.084,0.006-0.165,0.013-0.245,0.017c-0.235,0.017-0.462,0.036-0.676,0.059
				c-0.176,0.02-0.331,0.038-0.479,0.062c-0.097,0.015-0.188,0.029-0.277,0.044c-0.239,0.039-0.438,0.069-0.438,0.09v3.867h-2.938
				v-5.847c0.632-0.162,1.517-0.332,2.576-0.508c1.044-0.185,2.294-0.272,3.672-0.272c1.001,0,1.838,0.138,2.52,0.404
				c0.677,0.271,1.25,0.665,1.713,1.186c0.139-0.101,0.358-0.241,0.654-0.42c0.303-0.181,0.672-0.354,1.109-0.526
				c0.44-0.168,0.932-0.318,1.471-0.451c0.545-0.128,1.122-0.192,1.738-0.192c1.202,0,2.182,0.176,2.943,0.524
				c0.759,0.35,1.358,0.845,1.782,1.482c0.43,0.642,0.718,1.403,0.868,2.284c0.126,0.724,0.199,1.502,0.216,2.336h-2.804
				c-0.025-0.448-0.063-0.859-0.109-1.227c-0.088-0.663-0.26-1.208-0.512-1.65c-0.249-0.438-0.589-0.766-1.017-0.976
				c-0.426-0.21-0.986-0.314-1.666-0.314c-0.939,0-1.718,0.124-2.323,0.373c-0.608,0.252-1.025,0.479-1.246,0.676
				c0.166,0.52,0.283,1.09,0.36,1.709c0.06,0.453,0.095,0.925,0.111,1.409H220.738z"/>
			<rect x="211.493" y="48.805" fill="#93278F" width="2.938" height="9.229"/>
			<path fill="#93278F" d="M203.088,48.79c0.029,0.007,0.052,0.011,0.081,0.015h-3.854c0.658-0.117,1.34-0.18,2.051-0.18
				c0.279,0,0.57,0.017,0.871,0.046C202.542,48.7,202.821,48.74,203.088,48.79z"/>
			<path fill="#93278F" d="M200.854,58.434c-0.881,0-1.686-0.088-2.427-0.271c-0.738-0.181-1.378-0.466-1.919-0.855
				c-0.543-0.391-0.958-0.904-1.26-1.544c-0.301-0.642-0.449-1.409-0.449-2.307c0-0.862,0.174-1.603,0.522-2.222
				c0.353-0.618,0.828-1.119,1.426-1.499c0.6-0.38,1.303-0.661,2.1-0.841c0.155-0.034,0.311-0.063,0.468-0.091h3.854h0.002
				c0.237,0.044,0.414,0.084,0.594,0.124c0.201,0.038,0.391,0.067,0.391,0.086v-0.21h2.725v9.029
				c-0.21,0.04-0.539,0.095-0.972,0.168c-0.43,0.067-0.889,0.132-1.426,0.19c-0.537,0.061-1.12,0.115-1.754,0.166
				C202.102,58.408,201.477,58.434,200.854,58.434z M204.155,51.235c-0.21-0.101-0.493-0.185-0.946-0.256
				c-0.448-0.068-0.967-0.104-1.604-0.104c-0.417,0-0.862,0.031-1.332,0.088c-0.472,0.062-0.903,0.187-1.292,0.378
				c-0.289,0.141-0.545,0.323-0.765,0.543c-0.074,0.073-0.146,0.151-0.21,0.235c-0.258,0.333-0.393,0.763-0.393,1.307
				c0,0.188,0.011,0.364,0.034,0.53c0.096,0.72,0.4,1.237,0.922,1.552c0.559,0.342,1.29,0.535,2.203,0.577
				c0.128,0.006,0.26,0.008,0.396,0.008c0.663,0,1.231-0.01,1.747-0.044c0.506-0.031,1.03-0.084,1.24-0.165V51.235z"/>
			<path fill="#772077" d="M203.523,45.676c-0.258-0.354-0.608-0.634-1.065-0.843c-0.446-0.212-1.034-0.317-1.753-0.317
				c-0.921,0-1.725,0.065-2.412,0.195c-0.694,0.13-1.208,0.269-1.548,0.405l-0.327-2.31c0.36-0.159,0.958-0.314,1.802-0.462
				c0.835-0.152,1.74-0.229,2.725-0.229c1.115,0,2.06,0.147,2.829,0.437c0.77,0.294,1.382,0.703,1.852,1.229
				c0.47,0.53,0.789,1.159,0.986,1.894c0.201,0.726,0.269,1.531,0.269,2.41v0.719h-2.725v-0.568c0-0.461-0.017-0.916-0.12-1.365
				C203.933,46.423,203.781,46.021,203.523,45.676z"/>
			<path fill="#772077" d="M186.879,39.388c-1.099,0-2.091,0.19-2.965,0.57c-0.881,0.379-1.634,0.929-2.253,1.649
				c-0.619,0.721-1.093,1.596-1.424,2.628c-0.332,1.027-0.493,2.181-0.493,3.46c0,0.382,0.015,0.751,0.042,1.109h-3.098
				c-0.021-0.358-0.038-0.728-0.038-1.109c0-1.738,0.269-3.284,0.8-4.633c0.528-1.351,1.241-2.485,2.141-3.404
				c0.902-0.921,1.948-1.619,3.15-2.1s2.479-0.717,3.838-0.717c0.862,0,1.636,0.057,2.322,0.176c0.694,0.122,1.292,0.26,1.806,0.421
				c0.508,0.16,0.919,0.319,1.241,0.479c0.321,0.161,0.537,0.281,0.657,0.36l-0.835,2.399c-0.181-0.122-0.442-0.25-0.78-0.39
				c-0.34-0.136-0.722-0.277-1.156-0.419c-0.432-0.141-0.899-0.254-1.411-0.346C187.915,39.434,187.399,39.388,186.879,39.388z"/>
			<path fill="#93278F" d="M182.441,57.834c-1.2-0.48-2.229-1.179-3.09-2.1c-0.857-0.921-1.522-2.056-1.992-3.404
				c-0.367-1.057-0.589-2.227-0.671-3.525h3.098c0.059,0.814,0.188,1.573,0.395,2.28c0.287,1.02,0.717,1.894,1.3,2.624
				c0.581,0.729,1.307,1.296,2.18,1.696c0.866,0.398,1.879,0.598,3.041,0.598c1.338,0,2.449-0.139,3.328-0.419
				c0.881-0.277,1.537-0.529,1.978-0.749l0.753,2.399c-0.14,0.099-0.392,0.225-0.753,0.373c-0.358,0.151-0.807,0.296-1.351,0.437
				c-0.536,0.138-1.168,0.26-1.89,0.358c-0.717,0.101-1.495,0.153-2.334,0.153C184.971,58.556,183.639,58.313,182.441,57.834z"/>
			<path fill="#772077" d="M163.021,47.215c-0.188,0.521-0.313,1.051-0.372,1.59h-0.021h-2.856c0.095-0.759,0.262-1.455,0.508-2.084
				c0.4-1.028,0.929-1.884,1.59-2.563c0.66-0.68,1.42-1.189,2.279-1.531c0.86-0.34,1.738-0.51,2.639-0.51
				c2.1,0,3.708,0.657,4.828,1.964c0.938,1.097,1.48,2.672,1.634,4.725h-2.861h-0.004c0.019-1.26-0.298-2.294-0.943-3.104
				c-0.648-0.808-1.544-1.215-2.683-1.215c-0.64,0-1.206,0.124-1.695,0.376c-0.49,0.249-0.908,0.574-1.245,0.977
				C163.479,46.235,163.213,46.697,163.021,47.215z"/>
			<path fill="#93278F" d="M172.215,57.593c-0.34,0.183-0.936,0.371-1.783,0.57c-0.852,0.199-1.815,0.3-2.894,0.3
				c-1.361,0-2.538-0.203-3.526-0.616c-0.991-0.407-1.804-0.972-2.443-1.692c-0.64-0.72-1.115-1.575-1.426-2.565
				c-0.309-0.99-0.466-2.074-0.466-3.253c0-0.537,0.034-1.047,0.095-1.531h2.856h0.021h7.735h0.004h2.861
				c0.027,0.403,0.071,0.822,0.071,1.261c0,0.119,0,0.277,0,0.468c0,0.187-0.038,0.369-0.059,0.579h-10.676
				c0.122,1.468,0.592,2.82,1.411,3.659c0.818,0.842,2.1,1.231,3.841,1.231c0.979,0,1.804-0.084,2.473-0.254
				s1.175-0.335,1.517-0.495L172.215,57.593z"/>
			<path fill="#772077" d="M158.089,42.513c-0.578,2.098-1.23,4.26-1.958,6.292h-2.781c0.354-1.044,0.689-2.097,1.007-3.158
				c0.329-1.111,0.614-2.083,0.854-3.134H158.089z"/>
			<path fill="#93278F" d="M150.021,52.104c0.378,1.019,0.741,1.929,1.078,2.73c0.342-0.802,0.701-1.712,1.082-2.73
				c0.38-1.02,0.753-2.074,1.125-3.161c0.015-0.048,0.029-0.095,0.044-0.139h2.781c-0.252,0.709-0.517,1.374-0.785,2.068
				c-1.053,2.676-2.065,5.063-3.045,7.16h-2.519c-0.979-2.098-1.997-4.484-3.046-7.16c-0.272-0.694-0.532-1.359-0.784-2.068h2.898
				c0.017,0.044,0.031,0.091,0.046,0.139C149.264,50.03,149.642,51.085,150.021,52.104z"/>
			<path fill="#772077" d="M145.952,48.805c-0.728-2.032-1.38-4.194-1.959-6.292h2.999c0.239,1.051,0.522,2.022,0.855,3.134
				c0.315,1.062,0.65,2.114,1.003,3.158H145.952z"/>
			<rect x="138.297" y="48.805" fill="#93278F" width="2.729" height="9.229"/>
			<rect x="138.297" y="42.513" fill="#772077" width="2.729" height="6.292"/>
			<path fill="#772077" d="M140.979,39.193c-0.353,0.329-0.778,0.497-1.275,0.497c-0.499,0-0.925-0.168-1.275-0.497
				c-0.348-0.329-0.524-0.774-0.524-1.334s0.177-1.002,0.524-1.336c0.351-0.329,0.776-0.495,1.275-0.495
				c0.497,0,0.923,0.166,1.275,0.495c0.35,0.333,0.524,0.776,0.524,1.336S141.329,38.864,140.979,39.193z"/>
			<path fill="#93278F" d="M127.238,56.813c-0.417-0.539-0.701-1.204-0.871-1.994c-0.172-0.789-0.235-1.703-0.235-2.744v-3.27h2.727
				v3.24c0,0.78,0.071,1.425,0.191,1.935c0.12,0.509,0.308,0.91,0.547,1.199c0.241,0.289,0.541,0.497,0.9,0.614
				c0.36,0.12,0.78,0.183,1.26,0.183c0.839,0,1.512-0.097,2.024-0.287c0.51-0.188,0.864-0.325,1.063-0.405l0.541,2.31
				c-0.279,0.141-0.768,0.314-1.468,0.526c-0.7,0.21-1.498,0.314-2.397,0.314c-1.062,0-1.932-0.134-2.622-0.402
				C128.208,57.759,127.659,57.354,127.238,56.813z"/>
			<polygon fill="#772077" points="134.733,42.513 134.733,44.824 128.859,44.824 128.859,48.805 126.132,48.805 126.132,38.159 
				128.859,37.679 128.859,42.513 			"/>
			<path fill="#93278F" d="M112.714,52.119c-0.26,0.333-0.39,0.763-0.39,1.307c0,1,0.319,1.694,0.958,2.082
				c0.564,0.344,1.307,0.537,2.227,0.577c0.132,0.006,0.264,0.008,0.403,0.008c0.661,0,1.265-0.01,1.776-0.044
				c0.51-0.031,0.896-0.084,1.315-0.165v-4.648c-0.209-0.101-0.568-0.185-1.015-0.256c-0.451-0.068-1.038-0.104-1.676-0.104
				c-0.419,0-0.866,0.031-1.333,0.088c-0.472,0.062-0.9,0.187-1.29,0.378c-0.147,0.071-0.285,0.153-0.413,0.243
				c-0.084,0.059-0.166,0.124-0.241,0.193c0,0.002,0,0.002-0.002,0C112.917,51.882,112.81,51.995,112.714,52.119z M109.502,53.457
				c0-0.862,0.176-1.603,0.527-2.222c0.348-0.618,0.824-1.119,1.424-1.499c0.6-0.38,1.3-0.661,2.1-0.841
				c0.151-0.034,0.308-0.063,0.463-0.091h0.002h3.855c0.237,0.044,0.489,0.084,0.667,0.124c0.201,0.038,0.254,0.067,0.463,0.086
				v-0.21h2.725v9.029c-0.417,0.04-0.612,0.095-1.042,0.168c-0.43,0.067-0.954,0.132-1.495,0.19
				c-0.539,0.061-1.125,0.115-1.756,0.166c-0.627,0.05-1.254,0.075-1.873,0.075c-0.881,0-1.69-0.088-2.429-0.271
				c-0.741-0.181-1.38-0.466-1.919-0.855c-0.543-0.391-0.96-0.904-1.26-1.544C109.654,55.122,109.502,54.354,109.502,53.457z"/>
			<path fill="#93278F" d="M114.018,48.805c0.661-0.117,1.342-0.18,2.051-0.18c0.283,0,0.573,0.017,0.873,0.046
				s0.583,0.069,0.854,0.119c0.027,0.007,0.05,0.011,0.078,0.015H114.018z"/>
			<path fill="#93278F" d="M113.035,51.777c0.075-0.069,0.157-0.135,0.241-0.193C113.192,51.645,113.112,51.71,113.035,51.777z"/>
			<path fill="#93278F" d="M112.716,52.119c-0.26,0.333-0.388,0.763-0.388,1.307c0,1,0.325,1.694,0.965,2.082
				c0.56,0.342,1.305,0.533,2.217,0.577c-0.92-0.04-1.663-0.233-2.227-0.577c-0.64-0.388-0.958-1.082-0.958-2.082
				c0-0.544,0.13-0.974,0.39-1.307c0.096-0.124,0.203-0.237,0.318-0.342C112.919,51.884,112.812,51.995,112.716,52.119z"/>
			<path fill="#772077" d="M112.999,44.711c-0.69,0.13-1.208,0.269-1.546,0.405l-0.329-2.31c0.36-0.159,0.96-0.314,1.801-0.462
				c0.837-0.152,1.751-0.229,2.731-0.229c1.12,0,2.07,0.147,2.84,0.437c0.768,0.294,1.399,0.703,1.869,1.229
				c0.47,0.53,0.826,1.159,1.025,1.894c0.199,0.726,0.338,1.531,0.338,2.41v0.719h-2.725v-0.568c0-0.461-0.092-0.916-0.191-1.365
				c-0.101-0.448-0.321-0.85-0.581-1.195c-0.26-0.354-0.615-0.634-1.065-0.843c-0.449-0.212-1.034-0.317-1.753-0.317
				C114.492,44.516,113.687,44.581,112.999,44.711z"/>
			<path fill="#93278F" d="M105.516,57.593c-0.342,0.183-0.936,0.371-1.785,0.57c-0.85,0.199-1.816,0.3-2.895,0.3
				c-1.359,0-2.536-0.203-3.523-0.616c-0.99-0.407-1.806-0.972-2.445-1.692c-0.64-0.72-1.114-1.575-1.424-2.565
				s-0.465-2.074-0.465-3.253c0-0.537,0.031-1.047,0.092-1.531h2.863h0.015h7.735h0.008h2.856c0.032,0.403,0.082,0.822,0.082,1.261
				c0,0.119,0,0.277,0,0.468c0,0.187-0.044,0.369-0.065,0.579H95.887c0.122,1.468,0.589,2.82,1.41,3.659
				c0.82,0.842,2.102,1.231,3.84,1.231c0.979,0,1.804-0.084,2.475-0.254c0.669-0.17,1.174-0.335,1.514-0.495L105.516,57.593z"/>
			<path fill="#772077" d="M103.683,48.805c0.023-1.26-0.292-2.294-0.942-3.104c-0.65-0.808-1.543-1.215-2.685-1.215
				c-0.64,0-1.204,0.124-1.697,0.376c-0.488,0.249-0.902,0.574-1.241,0.977c-0.342,0.396-0.608,0.858-0.795,1.376
				c-0.191,0.521-0.315,1.051-0.375,1.59h-0.015H93.07c0.094-0.759,0.264-1.455,0.507-2.084c0.4-1.028,0.931-1.884,1.59-2.563
				c0.661-0.68,1.42-1.189,2.28-1.531c0.86-0.34,1.739-0.51,2.638-0.51c2.1,0,3.71,0.657,4.831,1.964
				c0.933,1.097,1.479,2.672,1.631,4.725h-2.856H103.683z"/>
			<path fill="#772077" d="M88.854,42.222c0.311,0.031,0.614,0.071,0.912,0.123c0.302,0.049,0.577,0.099,0.827,0.147
				c0.25,0.05,0.436,0.097,0.556,0.134l-0.482,2.431c-0.22-0.077-0.585-0.178-1.097-0.285c-0.51-0.108-1.168-0.163-1.967-0.163
				c-0.521,0-1.044,0.055-1.554,0.163c-0.51,0.107-0.812,0.187-1.021,0.225v3.809H82.3v-5.638c0.629-0.238,1.464-0.465,2.445-0.675
				c0.979-0.21,2.064-0.314,3.285-0.314C88.27,42.178,88.544,42.192,88.854,42.222z"/>
			<rect x="82.3" y="48.805" fill="#93278F" width="2.727" height="9.229"/>
			<path fill="#93278F" d="M77.023,58.044c-0.539,0.138-1.172,0.26-1.89,0.358c-0.719,0.101-1.5,0.153-2.338,0.153
				c-1.46,0-2.79-0.243-3.989-0.722c-1.2-0.48-2.229-1.179-3.089-2.1s-1.527-2.056-1.995-3.404
				c-0.369-1.057-0.589-2.227-0.669-3.525h3.096c0.063,0.814,0.191,1.573,0.392,2.28c0.29,1.02,0.726,1.894,1.305,2.624
				c0.581,0.729,1.304,1.296,2.175,1.696c0.871,0.398,1.881,0.598,3.043,0.598c1.34,0,2.45-0.139,3.331-0.419
				c0.877-0.277,1.54-0.529,1.978-0.749l0.751,2.399c-0.141,0.099-0.39,0.225-0.751,0.373
				C78.013,57.759,77.563,57.903,77.023,58.044z"/>
			<path fill="#772077" d="M78.133,40.678c-0.18-0.122-0.44-0.25-0.78-0.39c-0.339-0.136-0.726-0.277-1.153-0.419
				c-0.43-0.141-0.9-0.254-1.409-0.346c-0.51-0.088-1.026-0.134-1.546-0.134c-1.099,0-2.089,0.19-2.968,0.57
				c-0.881,0.379-1.632,0.929-2.25,1.649c-0.621,0.721-1.095,1.596-1.424,2.628c-0.332,1.027-0.495,2.181-0.495,3.46
				c0,0.382,0.015,0.751,0.042,1.109h-3.096c-0.023-0.358-0.036-0.728-0.036-1.109c0-1.738,0.264-3.284,0.795-4.633
				c0.526-1.351,1.244-2.485,2.144-3.404c0.899-0.921,1.95-1.619,3.15-2.1s2.479-0.717,3.838-0.717c0.86,0,1.636,0.057,2.324,0.176
				c0.69,0.122,1.29,0.26,1.799,0.421c0.512,0.16,0.925,0.319,1.246,0.479c0.319,0.161,0.539,0.281,0.661,0.36L78.133,40.678z"/>
		</g>
		<g>
		</g>
	</g>
</g>
<g>
</g>
<g>
</g>
<g>
</g>
<g>
</g>
<g>
</g>
<g>
</g>
<g>
</g>
<g>
</g>
<g>
</g>
<g>
</g>
<g>
</g>
<g>
</g>
<g>
</g>
<g>
</g>
<g>
</g>
</svg>
