<?xml version="1.0" encoding="utf-8"?>
<!-- Generator: Adobe Illustrator 16.0.0, SVG Export Plug-In . SVG Version: 6.00 Build 0)  -->
<!DOCTYPE svg PUBLIC "-//W3C//DTD SVG 1.1//EN" "http://www.w3.org/Graphics/SVG/1.1/DTD/svg11.dtd">
<svg version="1.1" id="Ebene_1" xmlns="http://www.w3.org/2000/svg" xmlns:xlink="http://www.w3.org/1999/xlink" x="0px" y="0px"
	 width="270px" height="80px" viewBox="0 0 270 80" enable-background="new 0 0 270 80" xml:space="preserve">
<rect fill="#4D4D4D" width="270" height="80"/>
<polygon fill="#BCB9C6" points="50,60.693 19.173,58.106 12.572,48.668 50,51.925 "/>
<g>
	<polygon fill="#BCB9C6" points="49.164,60.693 79.572,58.106 86.373,48.668 49.144,51.925 	"/>
</g>
<g>
	<polygon fill="#D3D0DD" points="49.133,28.723 23.28,55 31.968,55 49.137,28.939 	"/>
	<polygon fill="#A2A0AA" points="49.155,29.169 66.297,55 74.984,55 	"/>
	<polygon fill="#3FA9F5" points="49.14,28.299 49.137,28.303 49.155,28.32 	"/>
	<polygon fill="#BCB9C6" points="49.137,29 31.968,55 66.297,55 49.155,29 	"/>
</g>
<g>
	<polygon fill="#A2A0AA" points="18.714,58.106 11.913,48.668 49.155,55.899 	"/>
</g>
<g>
	<polygon fill="#D3D0DD" points="79.572,58.106 86.373,48.668 49.155,55.899 	"/>
</g>
<g>
	<g id="XMLID_1_">
		<g>
			<path fill="#BCB9C6" d="M259.596,49.105c0.061,0.481,0.095,0.981,0.095,1.505c0,1.184-0.154,2.274-0.463,3.276
				c-0.313,1.003-0.768,1.862-1.368,2.585c-0.602,0.722-1.337,1.282-2.207,1.684c-0.872,0.401-1.864,0.602-2.986,0.602
				c-0.903,0-1.689-0.122-2.381-0.361c-0.689-0.24-1.324-0.472-1.528-0.694v6.326h-2.734V49.105h2.734v5.985
				c0.204,0.28,0.812,0.547,1.452,0.81c0.642,0.261,1.335,0.391,2.098,0.391c0.301,0,0.582-0.021,0.849-0.061
				c0.087-0.013,0.173-0.029,0.257-0.049c0.345-0.071,0.662-0.181,0.95-0.325c0.355-0.179,0.668-0.403,0.941-0.675
				c0.166-0.16,0.317-0.336,0.454-0.529c0.311-0.446,0.551-0.961,0.712-1.547c0.023-0.082,0.047-0.169,0.065-0.255
				c0.16-0.691,0.239-1.439,0.239-2.24c0-0.54-0.044-1.038-0.126-1.505H259.596z"/>
			<path fill="#A2A0AA" d="M259.596,49.105h-2.947c-0.046-0.277-0.106-0.542-0.181-0.792c-0.221-0.755-0.565-1.392-1.042-1.911
				c-0.057-0.063-0.116-0.121-0.175-0.179c-0.235-0.229-0.487-0.429-0.761-0.597c-0.271-0.17-0.563-0.309-0.874-0.414
				c-0.078-0.027-0.155-0.053-0.235-0.075c-0.158-0.047-0.319-0.084-0.488-0.113c-0.34-0.062-0.697-0.093-1.075-0.093
				c-0.843,0-1.482,0.029-1.951,0.088c-0.475,0.062-0.905,0.133-1.109,0.213v3.873h-2.734v-5.857
				c0.629-0.162,1.438-0.336,2.43-0.525c0.992-0.191,2.091-0.286,3.396-0.286c1.202,0,2.282,0.189,3.243,0.569
				c0.962,0.383,1.784,0.923,2.465,1.627c0.681,0.7,1.206,1.558,1.578,2.568C259.352,47.792,259.505,48.429,259.596,49.105z"/>
			<path fill="#BCB9C6" d="M255.304,55.182c-0.273,0.271-0.586,0.496-0.941,0.675c-0.288,0.145-0.605,0.254-0.95,0.325
				c0.345-0.071,0.658-0.181,0.943-0.325C254.713,55.676,255.028,55.45,255.304,55.182z"/>
			<path fill="#BCB9C6" d="M253.155,56.23c0.089-0.015,0.173-0.029,0.257-0.049C253.328,56.201,253.242,56.218,253.155,56.23z"/>
			<path fill="#BCB9C6" d="M241.396,49.618v8.735h-2.942V50.22c0-0.396,0.042-0.766,0.023-1.114h2.81
				C241.292,49.275,241.396,49.444,241.396,49.618z"/>
			<path fill="#A2A0AA" d="M241.287,49.105h-2.81c-0.023-0.462-0.057-0.883-0.111-1.259c-0.089-0.662-0.261-1.213-0.511-1.654
				c-0.25-0.439-0.591-0.763-1.02-0.975c-0.436-0.213-0.99-0.317-1.671-0.317c-0.939,0-1.715,0.126-2.331,0.376
				c-0.609,0.25-1.021,0.477-1.244,0.677c0.162,0.519,0.277,1.093,0.359,1.711c0.063,0.464,0.097,0.945,0.113,1.441h-2.815
				c-0.023-0.462-0.063-0.883-0.122-1.259c-0.102-0.662-0.275-1.213-0.523-1.654c-0.252-0.439-0.591-0.763-1.021-0.975
				c-0.433-0.213-0.979-0.317-1.642-0.317c-0.279,0-0.58,0.01-0.901,0.031c-0.235,0.015-0.465,0.033-0.684,0.053
				c-0.079,0.006-0.157,0.015-0.233,0.021c-0.035,0.004-0.071,0.009-0.106,0.013c-0.102,0.011-0.198,0.023-0.288,0.036
				c-0.002,0-0.004,0-0.007,0c-0.063,0.008-0.124,0.017-0.183,0.027c-0.061,0.008-0.12,0.019-0.181,0.029
				c-0.241,0.042-0.454,0.071-0.454,0.09v3.905h-2.942v-5.887c0.633-0.164,1.532-0.332,2.585-0.511
				c1.051-0.181,2.316-0.271,3.695-0.271c1.002,0,1.843,0.133,2.526,0.406c0.679,0.269,1.25,0.666,1.713,1.188
				c0.141-0.102,0.357-0.244,0.659-0.425c0.301-0.177,0.675-0.354,1.112-0.523c0.443-0.17,0.936-0.319,1.476-0.45
				c0.54-0.13,1.122-0.195,1.74-0.195c1.202,0,2.186,0.175,2.946,0.527c0.761,0.35,1.355,0.846,1.791,1.486
				c0.429,0.641,0.721,1.401,0.868,2.284C241.197,47.469,241.265,48.261,241.287,49.105z"/>
			<path fill="#BCB9C6" d="M232.151,49.618v8.735h-2.944V50.22c0-0.396,0.059-0.766,0.04-1.114h2.815
				C232.069,49.275,232.151,49.446,232.151,49.618z"/>
			<path fill="#A2A0AA" d="M224.354,44.984c-0.073,0.008-0.145,0.015-0.219,0.021c-0.042,0.004-0.081,0.009-0.121,0.013
				c0.035-0.004,0.071-0.009,0.106-0.013C224.196,44.999,224.274,44.99,224.354,44.984z"/>
			<path fill="#A2A0AA" d="M224.014,45.018c-0.102,0.013-0.195,0.023-0.288,0.036C223.815,45.041,223.912,45.028,224.014,45.018z"/>
			<path fill="#A2A0AA" d="M223.719,45.054c-0.063,0.008-0.121,0.019-0.183,0.027C223.595,45.07,223.656,45.062,223.719,45.054z"/>
			<rect x="219.959" y="49.105" fill="#BCB9C6" width="2.942" height="9.248"/>
			<path fill="#BCB9C6" d="M215.335,49.105v9.019c-0.21,0.042-0.529,0.095-0.964,0.166c-0.432,0.071-0.875,0.135-1.413,0.195
				c-0.542,0.062-1.128,0.118-1.759,0.164c-0.633,0.048-1.257,0.075-1.879,0.075c-0.883,0-1.694-0.09-2.436-0.269
				c-0.742-0.181-1.384-0.467-1.924-0.855c-0.54-0.393-0.96-0.908-1.261-1.549s-0.452-1.412-0.452-2.316
				c0-0.859,0.175-1.602,0.525-2.224c0.352-0.62,0.826-1.12,1.432-1.503c0.597-0.38,1.299-0.659,2.1-0.84
				c0.109-0.025,0.219-0.042,0.321-0.063h0.002h4.155c0.179,0.033,0.299,0.065,0.441,0.093c0.2,0.037,0.379,0.069,0.379,0.088
				v-0.181H215.335z M212.604,56.172v-4.66c-0.211-0.101-0.486-0.185-0.936-0.254c-0.452-0.071-0.956-0.105-1.598-0.105
				c-0.42,0-0.868,0.029-1.339,0.093c-0.471,0.057-0.901,0.183-1.292,0.372c-0.244,0.12-0.463,0.267-0.656,0.441
				c-0.117,0.103-0.225,0.216-0.321,0.34c-0.261,0.333-0.393,0.768-0.393,1.306c0,1.007,0.314,1.698,0.956,2.091
				c0.565,0.343,1.301,0.538,2.224,0.578c0.124,0.007,0.25,0.009,0.38,0.009c0.66,0,1.228-0.015,1.74-0.047
				C211.878,56.306,212.393,56.251,212.604,56.172z"/>
			<path fill="#A2A0AA" d="M215.335,48.357v0.748h-2.731v-0.601c0-0.459-0.009-0.915-0.109-1.362
				c-0.102-0.454-0.24-0.855-0.503-1.204c-0.256-0.352-0.611-0.635-1.063-0.843c-0.449-0.21-1.038-0.315-1.759-0.315
				c-0.923,0-1.728,0.065-2.417,0.197c-0.693,0.131-1.211,0.265-1.549,0.403l-0.332-2.313c0.361-0.16,0.96-0.315,1.801-0.467
				c0.841-0.149,1.751-0.225,2.732-0.225c1.12,0,2.063,0.145,2.835,0.435s1.381,0.702,1.852,1.234
				c0.471,0.527,0.786,1.164,0.986,1.894C215.278,46.67,215.335,47.475,215.335,48.357z"/>
			<path fill="#A2A0AA" d="M211.783,49.105h-4.155c0.707-0.137,1.438-0.208,2.203-0.208c0.279,0,0.569,0.015,0.872,0.046
				c0.299,0.027,0.584,0.069,0.855,0.12C211.637,49.078,211.712,49.091,211.783,49.105z"/>
			<path fill="#BCB9C6" d="M200.453,55.118l0.752,2.404c-0.141,0.102-0.391,0.228-0.752,0.377c-0.359,0.151-0.812,0.296-1.352,0.437
				c-0.54,0.139-1.173,0.259-1.894,0.359c-0.719,0.102-1.503,0.149-2.346,0.149c-1.463,0-2.795-0.239-3.995-0.721
				c-1.202-0.481-2.236-1.182-3.094-2.104c-0.864-0.921-1.53-2.058-2.001-3.411c-0.365-1.049-0.588-2.218-0.668-3.504h3.102
				c0.063,0.805,0.191,1.558,0.392,2.257c0.292,1.024,0.725,1.898,1.307,2.63c0.58,0.731,1.308,1.297,2.18,1.698
				c0.87,0.401,1.89,0.601,3.052,0.601c1.341,0,2.453-0.141,3.333-0.42C199.352,55.589,200.012,55.339,200.453,55.118z"/>
			<path fill="#A2A0AA" d="M201.054,38.53l-0.838,2.404c-0.183-0.122-0.441-0.25-0.786-0.391c-0.339-0.139-0.726-0.281-1.154-0.422
				c-0.433-0.137-0.903-0.254-1.414-0.347c-0.511-0.088-1.025-0.135-1.547-0.135c-1.104,0-2.094,0.193-2.976,0.574
				c-0.883,0.38-1.636,0.931-2.254,1.654c-0.617,0.717-1.097,1.595-1.429,2.627c-0.33,1.032-0.494,2.19-0.494,3.473
				c0,0.391,0.015,0.769,0.044,1.139h-3.102c-0.025-0.37-0.038-0.748-0.038-1.139c0-1.745,0.265-3.292,0.797-4.646
				c0.529-1.349,1.248-2.488,2.147-3.411c0.901-0.921,1.955-1.623,3.152-2.102c1.205-0.481,2.486-0.723,3.851-0.723
				c0.862,0,1.638,0.061,2.331,0.181c0.689,0.12,1.29,0.261,1.799,0.42c0.513,0.162,0.929,0.321,1.249,0.481
				C200.716,38.33,200.937,38.45,201.054,38.53z"/>
			<path fill="#BCB9C6" d="M181.71,50.342c0,0.119,0,0.274,0,0.464c0,0.191-0.019,0.401-0.04,0.611h-10.699
				c0.119,1.472,0.59,2.814,1.414,3.655c0.819,0.843,2.102,1.219,3.846,1.219c0.981,0,1.808-0.084,2.479-0.256
				c0.672-0.168,1.175-0.337,1.518-0.494l0.391,2.344c-0.341,0.179-0.936,0.369-1.789,0.571c-0.851,0.199-1.815,0.301-2.897,0.301
				c-1.364,0-2.541-0.206-3.533-0.618c-0.992-0.408-1.808-0.976-2.446-1.696c-0.644-0.725-1.118-1.578-1.43-2.57
				c-0.311-0.992-0.467-2.078-0.467-3.262c0-0.527,0.03-1.027,0.089-1.505h2.89h7.751h2.871
				C181.683,49.501,181.71,49.91,181.71,50.342z"/>
			<path fill="#A2A0AA" d="M181.655,49.105h-2.871c0.02-1.261-0.296-2.31-0.945-3.123c-0.082-0.101-0.166-0.197-0.257-0.286
				c-0.622-0.624-1.431-0.945-2.434-0.945c-0.644,0-1.208,0.126-1.698,0.376c-0.492,0.25-0.908,0.576-1.246,0.976
				c-0.215,0.25-0.399,0.529-0.553,0.832c-0.093,0.181-0.175,0.37-0.246,0.565c-0.189,0.517-0.315,0.975-0.372,1.605h-2.89
				c0.095-0.771,0.265-1.478,0.513-2.118c0.401-1.03,0.934-1.886,1.593-2.566c0.66-0.681,1.423-1.194,2.285-1.534
				c0.859-0.341,1.744-0.511,2.646-0.511c2.102,0,3.714,0.655,4.836,1.969C180.96,45.446,181.504,47.033,181.655,49.105z"/>
			<path fill="#A2A0AA" d="M175.148,44.751c1.003,0,1.812,0.321,2.434,0.945c-0.622-0.624-1.434-0.943-2.434-0.943
				c-0.644,0-1.208,0.126-1.698,0.376c-0.492,0.252-0.908,0.58-1.246,0.979c-0.215,0.25-0.397,0.527-0.553,0.826
				c0.153-0.303,0.338-0.582,0.553-0.832c0.338-0.399,0.754-0.726,1.246-0.976C173.94,44.877,174.505,44.751,175.148,44.751z"/>
			<path fill="#A2A0AA" d="M166.223,42.887l-0.485,2.434c-0.221-0.078-0.589-0.175-1.102-0.284
				c-0.511-0.111-1.175-0.166-1.976-0.166c-0.52,0-1.049,0.055-1.562,0.166c-0.513,0.109-0.828,0.186-1.036,0.226v3.844h-2.732
				v-5.677c0.626-0.241,1.479-0.465,2.461-0.677s2.083-0.315,3.307-0.315c0.241,0,0.517,0.015,0.823,0.044
				c0.312,0.03,0.618,0.072,0.919,0.12c0.298,0.051,0.573,0.101,0.825,0.151C165.916,42.803,166.101,42.847,166.223,42.887z"/>
			<rect x="157.33" y="49.105" fill="#BCB9C6" width="2.732" height="9.248"/>
			<path fill="#BCB9C6" d="M152.494,49.105v8.84c-0.631,0.16-1.476,0.33-2.528,0.511c-1.049,0.179-2.258,0.269-3.641,0.269
				c-1.202,0-2.215-0.174-3.037-0.527c-0.821-0.349-1.483-0.843-1.981-1.485c-0.502-0.642-0.866-1.396-1.087-2.268
				c-0.221-0.873-0.336-1.84-0.336-2.9v-2.438h2.734v1.837c0,1.069,0.107,1.97,0.307,2.696c0.044,0.162,0.093,0.315,0.147,0.461
				c0.053,0.145,0.111,0.281,0.174,0.409c0.03,0.065,0.063,0.126,0.097,0.188c0.065,0.117,0.137,0.229,0.213,0.332
				c0.075,0.103,0.157,0.201,0.248,0.29c0.088,0.09,0.185,0.174,0.285,0.25c0.511,0.389,1.19,0.613,2.022,0.675
				c0.159,0.013,0.328,0.019,0.5,0.019c0.299,0,0.618-0.011,0.938-0.031c0.08-0.004,0.159-0.011,0.237-0.015
				c0.239-0.017,0.469-0.038,0.684-0.062c0.139-0.015,0.271-0.029,0.398-0.044c0.135-0.015,0.261-0.029,0.377-0.044
				c0.229-0.031,0.309-0.065,0.517-0.105v-6.855H152.494z"/>
			<rect x="149.762" y="42.801" fill="#A2A0AA" width="2.732" height="6.305"/>
			<path fill="#BCB9C6" d="M144.089,55.568c0.514,0.385,1.194,0.609,2.022,0.675C145.279,56.182,144.6,55.957,144.089,55.568z"/>
			<rect x="139.884" y="42.801" fill="#A2A0AA" width="2.734" height="6.305"/>
			<path fill="#BCB9C6" d="M136.679,55.629l0.391,2.346c-0.159,0.104-0.391,0.193-0.691,0.286c-0.301,0.09-0.639,0.17-1.021,0.239
				c-0.38,0.069-0.786,0.131-1.217,0.183c-0.431,0.049-0.847,0.074-1.248,0.074c-1.261,0-2.369-0.2-3.321-0.602
				s-1.753-0.962-2.404-1.684c-0.652-0.723-1.137-1.578-1.457-2.57c-0.322-0.992-0.481-2.089-0.481-3.291
				c0-0.521,0.034-1.021,0.101-1.505h2.921c-0.069,0.467-0.107,0.965-0.107,1.505c0,0.843,0.095,1.614,0.286,2.314
				c0.189,0.703,0.49,1.305,0.902,1.803c0.41,0.502,0.935,0.887,1.576,1.158c0.641,0.269,1.423,0.405,2.346,0.405
				c0.74,0,1.412-0.069,2.013-0.21S136.338,55.791,136.679,55.629z"/>
			<path fill="#A2A0AA" d="M136.83,43.128l-0.633,2.373c-0.42-0.199-0.906-0.359-1.457-0.481c-0.553-0.119-1.135-0.179-1.759-0.179
				c-1.562,0-2.76,0.492-3.592,1.472c-0.593,0.704-0.969,1.635-1.139,2.793h-2.921c0.086-0.635,0.225-1.231,0.424-1.804
				c0.351-1,0.847-1.866,1.488-2.598c0.641-0.731,1.427-1.301,2.358-1.715c0.933-0.407,1.969-0.613,3.11-0.613
				c0.702,0,1.404,0.061,2.104,0.179C135.519,42.677,136.187,42.867,136.83,43.128z"/>
			<path fill="#BCB9C6" d="M122.019,50.806c0,0.191,0.044,0.401,0.023,0.611h-10.7c0.12,1.472,0.591,2.814,1.413,3.655
				c0.822,0.843,2.104,1.219,3.848,1.219c0.981,0,1.808-0.084,2.48-0.256c0.67-0.168,1.175-0.337,1.518-0.494l0.391,2.344
				c-0.343,0.179-0.938,0.369-1.789,0.571c-0.854,0.199-1.818,0.301-2.9,0.301c-1.364,0-2.541-0.206-3.531-0.618
				c-0.992-0.408-1.81-0.976-2.45-1.696c-0.641-0.725-1.116-1.578-1.427-2.57s-0.467-2.078-0.467-3.262
				c0-0.527,0.03-1.027,0.088-1.505h2.888h7.753h2.871c0.029,0.396-0.009,0.805-0.009,1.236
				C122.019,50.461,122.019,50.616,122.019,50.806z"/>
			<path fill="#A2A0AA" d="M122.028,49.105h-2.871c0.021-1.261-0.294-2.31-0.946-3.123c-0.082-0.101-0.166-0.197-0.256-0.286
				c-0.622-0.624-1.434-0.945-2.434-0.945c-0.641,0-1.206,0.126-1.698,0.376c-0.492,0.25-0.906,0.576-1.247,0.976
				c-0.214,0.25-0.397,0.529-0.553,0.832c-0.09,0.181-0.172,0.37-0.244,0.565c-0.191,0.517-0.317,0.975-0.376,1.605h-2.888
				c0.095-0.771,0.265-1.478,0.513-2.118c0.401-1.03,0.931-1.886,1.593-2.566s1.423-1.194,2.285-1.534
				c0.862-0.341,1.742-0.511,2.644-0.511c2.104,0,3.718,0.655,4.84,1.969C121.332,45.446,121.876,47.033,122.028,49.105z"/>
			<path fill="#A2A0AA" d="M115.521,44.751c1,0,1.812,0.321,2.434,0.945c-0.625-0.624-1.436-0.943-2.434-0.943
				c-0.641,0-1.206,0.126-1.698,0.376c-0.492,0.252-0.906,0.58-1.247,0.979c-0.214,0.25-0.397,0.527-0.553,0.826
				c0.156-0.303,0.338-0.582,0.553-0.832c0.34-0.399,0.754-0.726,1.247-0.976C114.314,44.877,114.88,44.751,115.521,44.751z"/>
			<path fill="#BCB9C6" d="M105.512,50.658c0.301,0.689,0.452,1.526,0.452,2.508c0,1.82-0.667,3.229-1.999,4.208
				c-1.333,0.981-3.211,1.471-5.637,1.471c-0.822,0-1.576-0.055-2.268-0.162c-0.691-0.113-1.308-0.241-1.85-0.393
				c-0.54-0.151-1.007-0.312-1.397-0.481c-0.389-0.17-0.696-0.315-0.917-0.435l0.872-2.407c0.46,0.263,1.162,0.553,2.104,0.873
				c0.941,0.321,2.093,0.48,3.455,0.48c3.045,0,4.569-1.04,4.569-3.125c0-0.641-0.135-1.188-0.406-1.637
				c-0.271-0.452-0.637-0.843-1.097-1.171c-0.46-0.332-0.988-0.62-1.578-0.857c-0.347-0.144-0.707-0.284-1.079-0.425h5.731
				C104.907,49.553,105.258,50.07,105.512,50.658z"/>
			<path fill="#A2A0AA" d="M105.092,38.378l-0.931,2.375c-0.423-0.261-1.049-0.515-1.879-0.767c-0.833-0.25-1.799-0.375-2.9-0.375
				c-0.562,0-1.083,0.059-1.564,0.179c-0.479,0.12-0.901,0.299-1.261,0.542c-0.362,0.237-0.647,0.548-0.858,0.916
				c-0.21,0.368-0.315,0.806-0.315,1.306c0,0.563,0.109,1.031,0.33,1.414c0.221,0.381,0.532,0.717,0.933,1.009
				c0.399,0.288,0.866,0.555,1.397,0.793c0.53,0.241,1.116,0.483,1.757,0.721c0.902,0.363,1.728,0.723,2.48,1.084
				c0.75,0.361,1.402,0.793,1.952,1.293c0.084,0.075,0.158,0.157,0.235,0.237h-5.731c-0.26-0.101-0.527-0.197-0.798-0.299
				c-0.763-0.258-1.484-0.555-2.165-0.887c-0.681-0.33-1.273-0.719-1.773-1.171c-0.5-0.451-0.897-0.987-1.188-1.607
				c-0.29-0.622-0.435-1.37-0.435-2.255c0-1.822,0.62-3.248,1.864-4.269c1.242-1.021,2.955-1.532,5.139-1.532
				c1.263,0,2.408,0.136,3.44,0.405C103.854,37.76,104.611,38.059,105.092,38.378z"/>
		</g>
		<g>
		</g>
	</g>
</g>
<g>
</g>
<g>
</g>
<g>
</g>
<g>
</g>
<g>
</g>
<g>
</g>
<g>
</g>
<g>
</g>
<g>
</g>
<g>
</g>
<g>
</g>
<g>
</g>
<g>
</g>
<g>
</g>
<g>
</g>
</svg>
