<?xml version="1.0" encoding="utf-8"?>
<!-- Generator: Adobe Illustrator 16.0.0, SVG Export Plug-In . SVG Version: 6.00 Build 0)  -->
<!DOCTYPE svg PUBLIC "-//W3C//DTD SVG 1.1//EN" "http://www.w3.org/Graphics/SVG/1.1/DTD/svg11.dtd">
<svg version="1.1" id="Ebene_1" xmlns="http://www.w3.org/2000/svg" xmlns:xlink="http://www.w3.org/1999/xlink" x="0px" y="0px"
	 width="270px" height="80px" viewBox="0 0 270 80" enable-background="new 0 0 270 80" xml:space="preserve">
<rect fill="#001E0E" width="270" height="80"/>
<g>
	<g id="XMLID_2_">
		<g>
			<path fill="#006837" d="M254.954,47.243c0,1.476-0.196,2.835-0.584,4.085s-0.957,2.321-1.709,3.223
				c-0.746,0.896-1.672,1.599-2.759,2.094c-1.085,0.503-2.34,0.752-3.739,0.752c-1.124,0-2.138-0.149-3-0.448
				c-0.862-0.304-1.452-0.587-1.976-0.861v7.857h-3.406V45.344h3.406v7.483c0.523,0.349,1.082,0.687,1.881,1.012
				c0.202,0.081,0.409,0.154,0.621,0.212c0.428,0.126,0.875,0.207,1.342,0.243c0.115,0.014,0.233,0.021,0.352,0.024
				c0.109,0.005,0.22,0.008,0.332,0.008c0.131,0,0.26-0.003,0.388-0.008c0.844-0.04,1.578-0.218,2.201-0.537
				c0.713-0.362,1.292-0.86,1.743-1.499c0.447-0.637,0.772-1.387,0.977-2.248c0.197-0.862,0.297-1.79,0.297-2.791
				c0-0.341-0.014-0.671-0.042-0.985c-0.014-0.159-0.029-0.314-0.05-0.466c-0.021-0.152-0.042-0.302-0.068-0.448h3.668
				C254.909,45.949,254.954,46.58,254.954,47.243z"/>
			<path fill="#004C26" d="M249.633,41.997c0.623,0.682,1.071,1.528,1.347,2.534c-0.278-1.006-0.734-1.853-1.357-2.534
				c-0.982-1.071-2.262-1.674-3.823-1.808C247.366,40.318,248.645,40.923,249.633,41.997z"/>
			<path fill="#006837" d="M245.031,54.294c0.115,0.011,0.233,0.019,0.352,0.024C245.265,54.315,245.146,54.308,245.031,54.294z"/>
			<path fill="#006837" d="M243.689,54.051c0.428,0.123,0.878,0.204,1.342,0.243C244.564,54.258,244.117,54.177,243.689,54.051z"/>
			<path fill="#004C26" d="M250.979,44.531c-0.275-1.006-0.724-1.853-1.347-2.534c-0.988-1.074-2.267-1.679-3.834-1.808
				c-0.215-0.021-0.435-0.029-0.663-0.029c-1.048,0-1.912,0.04-2.497,0.113c-0.589,0.076-0.928,0.163-1.451,0.262v4.809h-3.406
				v-7.279c0.786-0.202,1.86-0.419,3.097-0.658c1.237-0.236,2.673-0.354,4.3-0.354c1.496,0,2.843,0.236,4.043,0.71
				s2.223,1.15,3.074,2.023c0.849,0.875,1.504,1.944,1.965,3.204c0.27,0.731,0.456,1.515,0.568,2.354h-3.668
				C251.113,45.061,251.053,44.791,250.979,44.531z"/>
			<path fill="#006837" d="M232.017,56.87h-3.406V46.756c0-0.503-0.084-0.972-0.105-1.412h3.506c0.006,0.217,0.006,0.44,0.006,0.665
				V56.87z"/>
			<path fill="#006837" d="M220.487,56.87h-3.406V46.756c0-0.503-0.058-0.972-0.084-1.412h3.511c0.009,0.217-0.021,0.44-0.021,0.665
				V56.87z"/>
			<path fill="#004C26" d="M216.667,42.928c-0.123-0.451-0.283-0.849-0.477-1.192c-0.079-0.136-0.163-0.265-0.255-0.385
				c0.092,0.12,0.179,0.249,0.257,0.385C216.387,42.079,216.547,42.477,216.667,42.928z"/>
			<path fill="#004C26" d="M221.476,40.593c-0.763,0.312-1.282,0.594-1.555,0.843c0.199,0.65,0.349,1.362,0.448,2.136
				c0.073,0.568,0.121,1.158,0.139,1.771h-3.511c-0.028-0.568-0.078-1.085-0.149-1.549c-0.047-0.31-0.107-0.598-0.181-0.867
				c-0.12-0.451-0.28-0.849-0.475-1.192c-0.078-0.136-0.165-0.265-0.257-0.385c-0.047-0.061-0.094-0.118-0.144-0.173
				c-0.05-0.056-0.103-0.11-0.154-0.157c-0.009-0.008-0.014-0.016-0.019-0.019c-0.207-0.197-0.44-0.356-0.702-0.485
				c-0.535-0.262-1.222-0.393-2.044-0.393c-0.352,0-0.729,0.013-1.13,0.037c-0.393,0.026-0.775,0.058-1.134,0.094
				c-0.006,0-0.008,0-0.014,0c-0.086,0.011-0.173,0.019-0.257,0.029c-0.044,0.005-0.089,0.011-0.134,0.016
				c-0.047,0.005-0.094,0.011-0.139,0.016c-0.084,0.013-0.165,0.023-0.243,0.034c-0.082,0.013-0.16,0.024-0.236,0.037
				c-0.299,0.05-0.366,0.089-0.629,0.112v4.845h-3.406v-7.316c0.786-0.202,1.845-0.414,3.157-0.639
				c1.311-0.226,2.817-0.335,4.541-0.335c1.25,0,2.298,0.167,3.147,0.503c0.849,0.338,1.562,0.833,2.135,1.48
				c0.176-0.123,0.451-0.299,0.826-0.524c0.374-0.226,0.835-0.443,1.386-0.655c0.55-0.212,1.163-0.398,1.837-0.563
				c0.673-0.16,1.399-0.241,2.172-0.241c1.499,0,2.723,0.217,3.674,0.655c0.948,0.438,1.69,1.056,2.228,1.855
				c0.537,0.799,0.901,1.747,1.087,2.846c0.154,0.909,0.244,1.889,0.27,2.935h-3.506c-0.028-0.568-0.073-1.085-0.136-1.549
				c-0.112-0.822-0.325-1.509-0.637-2.06c-0.312-0.548-0.736-0.956-1.273-1.218s-1.231-0.393-2.081-0.393
				C223.204,40.124,222.237,40.281,221.476,40.593z"/>
			<rect x="205.552" y="45.344" fill="#006837" width="3.406" height="11.526"/>
			<path fill="#004C26" d="M199.787,44.435v0.909h-3.406V44.62c0-0.573-0.076-1.143-0.201-1.705
				c-0.126-0.562-0.364-1.062-0.689-1.499c-0.325-0.435-0.768-0.786-1.329-1.048c-0.563-0.262-1.294-0.391-2.192-0.391
				c-1.15,0-2.154,0.079-3.017,0.241c-0.861,0.163-1.504,0.33-1.931,0.506l-0.411-2.885c0.45-0.199,1.2-0.393,2.248-0.582
				c1.051-0.186,2.188-0.28,3.411-0.28c1.399,0,2.581,0.181,3.543,0.542c0.962,0.364,1.739,0.875,2.326,1.541
				c0.588,0.658,1.012,1.446,1.261,2.356C199.648,42.33,199.787,43.334,199.787,44.435z"/>
			<path d="M195.092,45.344h-4.913c0.839-0.155,1.709-0.236,2.615-0.236c0.349,0,0.71,0.019,1.085,0.056
				c0.374,0.039,0.73,0.089,1.068,0.151C194.997,45.322,195.045,45.333,195.092,45.344z"/>
			<path fill="#006837" d="M189.309,53.707c-0.1-0.06-0.191-0.125-0.277-0.201C189.117,53.579,189.209,53.645,189.309,53.707z"/>
			<path fill="#006837" d="M196.381,45.595v-0.251h3.406V56.61c-0.262,0.05-0.73,0.118-1.268,0.207
				c-0.537,0.087-1.156,0.168-1.829,0.244c-0.677,0.073-1.404,0.142-2.193,0.204c-0.786,0.063-1.567,0.095-2.34,0.095
				c-1.101,0-2.112-0.113-3.037-0.338c-0.925-0.224-1.724-0.579-2.397-1.066c-0.674-0.488-1.2-1.13-1.575-1.932
				c-0.374-0.799-0.561-1.761-0.561-2.885c0-1.072,0.218-1.997,0.655-2.772c0.438-0.772,1.03-1.399,1.779-1.873
				c0.749-0.472,1.624-0.826,2.623-1.049c0.176-0.039,0.356-0.073,0.534-0.102h4.913c0.277,0.05,0.537,0.097,0.749,0.139
				C196.093,45.532,196.381,45.571,196.381,45.595z M188.597,49.473c-0.163,0.207-0.283,0.446-0.364,0.716
				c-0.042,0.136-0.074,0.28-0.092,0.433c-0.021,0.154-0.032,0.314-0.032,0.481c0,1.093,0.307,1.895,0.92,2.403h0.003
				c0.086,0.076,0.178,0.142,0.277,0.201h0.003c0.799,0.487,1.89,0.731,3.263,0.731c0.825,0,1.563-0.019,2.2-0.058
				c0.637-0.037,1.082-0.104,1.606-0.202v-5.812c-0.262-0.123-0.671-0.23-1.231-0.317c-0.563-0.089-1.258-0.133-2.057-0.133
				c-0.524,0-1.08,0.039-1.667,0.112c-0.587,0.076-1.124,0.233-1.611,0.469C189.327,48.736,188.921,49.062,188.597,49.473z"/>
			<path fill="#006837" d="M188.232,50.188c-0.04,0.136-0.071,0.28-0.092,0.433C188.158,50.469,188.19,50.324,188.232,50.188z"/>
			<path fill="#006837" d="M189.028,53.506c-0.613-0.509-0.92-1.311-0.92-2.403c0-0.167,0.011-0.327,0.032-0.481
				c-0.019,0.154-0.029,0.314-0.029,0.481C188.111,52.195,188.418,52.995,189.028,53.506z"/>
			<path fill="#004C26" d="M165.831,45.344h-3.867c-0.028-0.456-0.047-0.92-0.047-1.396c0-2.175,0.333-4.104,0.993-5.791
				c0.663-1.685,1.556-3.103,2.681-4.253c1.124-1.147,2.434-2.022,3.933-2.623s3.097-0.899,4.798-0.899
				c1.074,0,2.041,0.076,2.903,0.226c0.861,0.149,1.611,0.325,2.248,0.524c0.637,0.202,1.155,0.401,1.554,0.6
				c0.4,0.199,0.676,0.348,0.825,0.448l-1.048,2.998c-0.226-0.149-0.551-0.312-0.975-0.484c-0.425-0.176-0.907-0.351-1.444-0.527
				c-0.537-0.173-1.124-0.317-1.761-0.43s-1.278-0.167-1.929-0.167c-1.375,0-2.612,0.235-3.71,0.71
				c-1.101,0.474-2.036,1.163-2.809,2.062c-0.775,0.899-1.368,1.991-1.782,3.278c-0.411,1.287-0.618,2.73-0.618,4.329
				C165.776,44.424,165.797,44.888,165.831,45.344z"/>
			<path fill="#006837" d="M161.964,45.344h3.867c0.076,1.009,0.239,1.957,0.49,2.84c0.361,1.271,0.904,2.364,1.63,3.275
				c0.724,0.912,1.63,1.617,2.717,2.12c1.085,0.498,2.354,0.747,3.803,0.747c1.674,0,3.061-0.176,4.158-0.524
				c1.101-0.352,1.923-0.663,2.474-0.938l0.938,2.998c-0.175,0.126-0.487,0.28-0.938,0.469c-0.451,0.187-1.012,0.37-1.686,0.543
				c-0.676,0.175-1.462,0.324-2.36,0.45c-0.901,0.123-1.873,0.187-2.922,0.187c-1.826,0-3.487-0.299-4.986-0.899
				c-1.499-0.6-2.785-1.473-3.859-2.623c-1.074-1.147-1.905-2.564-2.492-4.252C162.341,48.42,162.063,46.952,161.964,45.344z"/>
			<path fill="#004C26" d="M157.069,45.344h-3.514c-0.039-0.613-0.104-1.166-0.199-1.659c-0.162-0.849-0.433-1.538-0.807-2.062
				c-0.375-0.524-0.876-0.904-1.499-1.143c-0.626-0.239-1.402-0.356-2.327-0.356c-0.375,0-0.765,0.026-1.166,0.076
				c-0.1,0.013-0.199,0.026-0.296,0.039c-0.296,0.04-0.582,0.081-0.854,0.128c-0.225,0.04-0.442,0.079-0.642,0.126
				c-0.053,0.008-0.103,0.021-0.152,0.031c-0.068,0.016-0.136,0.034-0.199,0.05c-0.285,0.073-0.39,0.136-0.652,0.186v4.583h-3.406
				V28.472l3.406-0.6v9.968c0.786-0.249,1.379-0.443,2.115-0.582c0.735-0.136,1.501-0.204,2.227-0.204
				c1.549,0,2.835,0.217,3.859,0.655c1.025,0.438,1.843,1.048,2.453,1.834c0.613,0.789,1.043,1.732,1.294,2.83
				C156.917,43.284,157.032,44.277,157.069,45.344z"/>
			<path fill="#006837" d="M153.556,45.344h3.514c0.005,0.217,0.008,0.44,0.008,0.665V56.87h-3.406V46.756
				C153.671,46.253,153.584,45.784,153.556,45.344z"/>
			<path fill="#004C26" d="M145.613,40.525c-0.068,0.016-0.136,0.034-0.199,0.05C145.478,40.559,145.545,40.541,145.613,40.525z"/>
			<rect x="141.355" y="45.344" fill="#006837" width="3.406" height="11.526"/>
			<path fill="#006837" d="M137.113,53.503l0.487,2.922c-0.201,0.123-0.487,0.243-0.862,0.354c-0.374,0.112-0.799,0.212-1.273,0.302
				c-0.474,0.086-0.982,0.162-1.517,0.225c-0.54,0.061-1.056,0.092-1.557,0.092c-1.572,0-2.953-0.249-4.14-0.752
				c-1.187-0.495-2.186-1.197-2.998-2.094c-0.813-0.901-1.418-1.965-1.819-3.204c-0.398-1.237-0.597-2.604-0.597-4.104
				c0-0.657,0.044-1.292,0.128-1.899h3.642c-0.086,0.587-0.136,1.216-0.136,1.899c0,1.048,0.118,2.013,0.356,2.885
				c0.236,0.875,0.61,1.625,1.124,2.248c0.511,0.627,1.166,1.106,1.965,1.444c0.799,0.335,1.774,0.506,2.924,0.506
				c0.922,0,1.761-0.087,2.51-0.263C136.102,53.889,136.688,53.702,137.113,53.503z"/>
			<path fill="#004C26" d="M137.3,37.913l-0.786,2.961c-0.524-0.249-1.129-0.451-1.816-0.6c-0.689-0.149-1.42-0.226-2.193-0.226
				c-1.949,0-3.44,0.613-4.478,1.837c-0.734,0.867-1.203,2.022-1.417,3.459h-3.642c0.107-0.781,0.28-1.522,0.526-2.223
				c0.438-1.249,1.054-2.329,1.855-3.241c0.799-0.912,1.779-1.622,2.94-2.136c1.163-0.511,2.455-0.768,3.878-0.768
				c0.875,0,1.748,0.076,2.623,0.226C135.665,37.352,136.5,37.59,137.3,37.913z"/>
			<path fill="#006837" d="M118.821,47.487c0,0.238,0.068,0.474,0.045,0.736h-13.34c0.149,1.834,0.736,3.519,1.761,4.569
				c1.024,1.048,2.623,1.533,4.798,1.533c1.224,0,2.253-0.107,3.089-0.32c0.839-0.212,1.468-0.416,1.895-0.618l0.485,2.924
				c-0.424,0.223-1.166,0.462-2.227,0.711c-1.064,0.251-2.27,0.374-3.616,0.374c-1.701,0-3.168-0.254-4.405-0.768
				c-1.236-0.511-2.253-1.219-3.052-2.117c-0.799-0.898-1.394-1.965-1.779-3.199c-0.388-1.239-0.582-2.594-0.582-4.069
				c0-0.665,0.039-1.3,0.112-1.899h3.598h9.667h3.577c0.037,0.498-0.024,1.017-0.024,1.562
				C118.821,47.058,118.821,47.251,118.821,47.487z"/>
			<path fill="#004C26" d="M118.845,45.344h-3.577c0.026-1.575-0.37-2.875-1.179-3.886c-0.813-1.012-1.931-1.52-3.354-1.52
				c-0.299,0-0.587,0.021-0.859,0.065c-0.456,0.073-0.875,0.207-1.258,0.401c-0.076,0.04-0.152,0.081-0.226,0.123
				c-0.296,0.168-0.566,0.359-0.814,0.574c-0.061,0.052-0.121,0.109-0.181,0.168c-0.06,0.055-0.118,0.112-0.173,0.173
				c-0.055,0.06-0.11,0.12-0.163,0.183c-0.424,0.501-0.754,1.077-0.993,1.728c-0.236,0.646-0.393,1.202-0.467,1.991h-3.598
				c0.118-0.957,0.331-1.826,0.637-2.615c0.5-1.286,1.161-2.355,1.986-3.205c0.826-0.849,1.774-1.486,2.848-1.91
				s2.172-0.637,3.296-0.637c2.623,0,4.633,0.817,6.032,2.455C117.975,40.8,118.654,42.773,118.845,45.344z"/>
			<path fill="#004C26" d="M108.618,40.404c0.382-0.194,0.802-0.328,1.258-0.401c-0.456,0.073-0.875,0.209-1.258,0.404
				c-0.076,0.039-0.152,0.078-0.226,0.12C108.466,40.485,108.542,40.444,108.618,40.404z"/>
			<path fill="#004C26" d="M107.578,41.102c-0.061,0.055-0.121,0.109-0.181,0.168C107.458,41.211,107.518,41.153,107.578,41.102z"/>
			<path fill="#004C26" d="M107.397,41.27c-0.058,0.055-0.115,0.112-0.173,0.173C107.279,41.382,107.337,41.324,107.397,41.27z"/>
			<polygon fill="#004C26" points="101.528,30.93 101.528,34.074 93.405,34.074 93.405,45.344 89.737,45.344 89.737,34.074 
				81.352,34.074 81.352,30.93 			"/>
			<rect x="89.737" y="45.344" fill="#006837" width="3.668" height="11.526"/>
		</g>
		<g>
		</g>
	</g>
</g>
<g>
	<g id="XMLID_1_">
		<g>
			<rect x="60.635" y="42.384" fill="#004C26" width="8.74" height="3.517"/>
			<rect x="60.635" y="35.151" fill="#004C26" width="8.74" height="3.617"/>
			<rect x="60.635" y="28.219" fill="#004C26" width="8.74" height="3.516"/>
			<polygon fill="#006837" points="60.635,52.83 60.635,49.301 64.182,52.83 			"/>
			<polygon fill="#004C26" points="64.182,52.83 60.635,49.301 60.635,49.215 69.375,49.215 69.375,52.83 64.183,52.83 			"/>
			<polygon fill="#004C26" points="41.837,30.408 59.33,47.944 41.816,30.429 			"/>
			<rect x="50.589" y="59.16" fill="#006837" width="3.617" height="8.539"/>
			<polygon fill="#004C26" points="54.206,18 54.206,21.889 50.589,21.889 50.589,21.573 			"/>
			<polygon fill="#006837" points="50.589,13.251 54.206,13.251 54.206,18 50.589,21.573 			"/>
			<rect x="43.859" y="59.16" fill="#006837" width="3.516" height="8.539"/>
			<rect x="43.859" y="13.251" fill="#006837" width="3.516" height="8.638"/>
			<polygon fill="#004C26" points="41.837,30.405 49.149,23.096 59.33,23.096 59.33,47.944 41.837,30.408 41.837,30.407 
				41.838,30.406 			"/>
			<polygon fill="#004C26" points="41.837,30.407 41.836,30.407 41.836,30.406 41.837,30.405 41.838,30.406 			"/>
			<polygon fill="#004C26" points="41.837,30.405 41.816,30.384 49.149,23.096 			"/>
			<rect x="41.826" y="30.38" fill="#004C26" width="0.001" height="0.03"/>
			<polygon fill="#004C26" points="41.836,30.407 41.837,30.407 41.837,30.408 41.816,30.429 41.815,30.429 41.794,30.407 
				41.795,30.406 41.816,30.426 			"/>
			<polygon fill="#004C26" points="41.836,30.406 41.836,30.407 41.816,30.426 41.795,30.406 41.795,30.405 41.815,30.385 			"/>
			<polygon fill="#006837" points="49.149,23.096 41.816,30.384 34.485,23.096 			"/>
			<polygon fill="#006837" points="41.816,30.429 59.33,47.944 59.33,57.754 24.671,57.754 24.671,47.574 41.815,30.429 			"/>
			<polygon fill="#006837" points="41.794,30.407 41.815,30.429 24.671,47.574 			"/>
			<polygon fill="#004C26" points="41.794,30.405 41.795,30.405 41.795,30.406 41.794,30.407 41.793,30.406 			"/>
			<polygon fill="#006837" points="34.485,23.096 41.816,30.384 41.815,30.385 41.795,30.405 41.794,30.405 			"/>
			<rect x="36.525" y="59.16" fill="#006837" width="3.616" height="8.539"/>
			<rect x="36.525" y="13.251" fill="#006837" width="3.616" height="8.638"/>
			<rect x="29.694" y="59.16" fill="#006837" width="3.416" height="8.539"/>
			<polygon fill="#007F3F" points="29.694,18.247 33.11,21.82 33.11,21.744 33.252,21.889 29.694,21.889 			"/>
			<polygon fill="#007F3F" points="33.11,21.82 29.694,18.247 33.11,21.744 			"/>
			<polygon fill="#006837" points="29.694,18.246 29.694,13.251 33.11,13.251 33.11,21.744 29.694,18.247 			"/>
			<polygon fill="#007F3F" points="24.671,23.096 34.485,23.096 41.794,30.405 41.793,30.406 41.794,30.407 24.671,47.574 			"/>
			<rect x="14.625" y="42.384" fill="#007F3F" width="8.74" height="3.517"/>
			<rect x="14.625" y="35.151" fill="#007F3F" width="8.74" height="3.617"/>
			<rect x="14.625" y="28.219" fill="#007F3F" width="8.74" height="3.516"/>
			<polygon fill="#006837" points="23.024,49.215 23.365,49.215 23.365,52.83 19.451,52.83 			"/>
			<polygon fill="#007F3F" points="14.625,52.83 14.625,49.215 23.024,49.215 19.451,52.83 			"/>
		</g>
		<g>
		</g>
	</g>
</g>
<g>
</g>
<g>
</g>
<g>
</g>
<g>
</g>
<g>
</g>
<g>
</g>
<g>
</g>
<g>
</g>
<g>
</g>
<g>
</g>
<g>
</g>
<g>
</g>
<g>
</g>
<g>
</g>
<g>
</g>
</svg>
